# xmcd
#
# Track frame offsets: 
#        150
#        6275
#        26947
#        46660
#        61492
#        79562
#        104466
#        121612
#        144179
#        162095
#        184877
#        215884
#
# Disc length: 3627 seconds
#
# Revision: 7
# Processed by: cddbd v1.5.2PL0 Copyright (c) Steve Scherf et al.
# Submitted via: ExactAudioCopy v1.3
#
DISCID=9c0e290c
DTITLE=DAN BARTA and ILLUSTRATOSPHERE - ENTROPICTURE
DYEAR=2003
DGENRE=Jazz
TTITLE0=DAN BARTA and ILLUSTRATOSPHERE - INTROPICTURE
TTITLE1=DAN BARTA and ILLUSTRATOSPHERE - INNERVIEW
TTITLE2=DAN BARTA and ILLUSTRATOSPHERE - ETNIKA ET NIKOLA
TTITLE3=DAN BARTA and ILLUSTRATOSPHERE - NIC NOVEHO POD PIHOU
TTITLE4=DAN BARTA and ILLUSTRATOSPHERE - ZA PORYVU
TTITLE5=DAN BARTA and ILLUSTRATOSPHERE - ZIVY
TTITLE6=DAN BARTA and ILLUSTRATOSPHERE - DUA
TTITLE7=DAN BARTA and ILLUSTRATOSPHERE - MESTEM
TTITLE8=DAN BARTA and ILLUSTRATOSPHERE - TABORY SESTEK
TTITLE9=DAN BARTA and ILLUSTRATOSPHERE - PLANETAM
TTITLE10=DAN BARTA and ILLUSTRATOSPHERE - PILATUV SEN
TTITLE11=DAN BARTA and ILLUSTRATOSPHERE - STMIVANI
EXTD=YEAR: 2003
EXTT0=
EXTT1=
EXTT2=
EXTT3=
EXTT4=
EXTT5=
EXTT6=
EXTT7=
EXTT8=
EXTT9=
EXTT10=
EXTT11=
PLAYORDER=
